HIERARCHY
ROOT leWrist
{
	OFFSET 0.00 0.00 0.00
	CHANNELS 6 Xposition Yposition Zposition Xrotation Yrotation Zrotation
	JOINT leHand
	{
		OFFSET 0.11942 0.36471 -0.08791
		CHANNELS 3 Xrotation Yrotation Zrotation
		JOINT LeIndexMP
		{
			OFFSET 1.09197 2.42158 -0.70498
			CHANNELS 3 Zrotation Xrotation Yrotation
			JOINT LeIndexPIP
			{
				OFFSET 0.54914 1.69807 0.00037
				CHANNELS 3 Xrotation Yrotation Zrotation
				JOINT LeIndexDIP
				{
					OFFSET 0.34223 0.98477 -0.13890
					CHANNELS 3 Xrotation Yrotation Zrotation
					End Site
					{
						OFFSET 0.30414 0.90123 -0.07454
					}
				}
			}
		}
		JOINT LeMiddleMP
		{
			OFFSET 0.20570 2.50174 -0.52444
			CHANNELS 3 Zrotation Xrotation Yrotation
			JOINT LeMiddlePIP
			{
				OFFSET -0.25811 1.79891 -0.09553
				CHANNELS 3 Xrotation Yrotation Zrotation
				JOINT LeMiddleDIP
				{
					OFFSET -0.15680 1.09225 -0.05298
					CHANNELS 3 Xrotation Yrotation Zrotation
					End Site
					{
						OFFSET -0.15297 1.06215 -0.02141
					}
				}
			}
		}
		JOINT LeRingMP
		{
			OFFSET -0.68298 2.32110 -0.37433
			CHANNELS 3 Zrotation Xrotation Yrotation
			JOINT LeRingPIP
			{
				OFFSET -0.56320 1.55045 -0.08792
				CHANNELS 3 Xrotation Yrotation Zrotation
				JOINT LeRingDIP
				{
					OFFSET -0.34522 0.95085 -0.05080
					CHANNELS 3 Xrotation Yrotation Zrotation
					End Site
					{
						OFFSET -0.35953 0.99671 -0.01102
					}
				}
			}
		}
		JOINT LePinkyMP
		{
			OFFSET -1.60546 2.01050 -0.41468
			CHANNELS 3 Zrotation Xrotation Yrotation
			JOINT LePinkyPIP
			{
				OFFSET -0.81697 0.78962 -0.37932
				CHANNELS 3 Xrotation Yrotation Zrotation
				JOINT LePinkyDIP
				{
					OFFSET -0.51445 0.51600 -0.16745
					CHANNELS 3 Xrotation Yrotation Zrotation
					End Site
					{
						OFFSET -0.66687 0.68407 -0.15932
					}
				}
			}
		}
		JOINT LeThumbCMC
		{
			OFFSET 1.32642 0.01652 -0.91353
			CHANNELS 3 Xrotation Yrotation Zrotation
			JOINT LeThumbMP
			{
				OFFSET 0.56037 -0.04452 -1.10949
				CHANNELS 3 Xrotation Yrotation Zrotation
				JOINT LeThumbIP
				{
					OFFSET 0.56894 -0.31394 -0.93677
					CHANNELS 3 Xrotation Yrotation Zrotation
					End Site
					{
						OFFSET 0.15316 0.30870 -1.10710
					}
				}
			}
		}
	}
}
MOTION
Frames: 25
Frame Time: 0.008333
 9.9932 50.2877 -1.7292 16.6734 52.1786 63.4497 25.4069 -14.1587 -12.2277 26.2479 -1.4064 1.0739 5.6857 -1.7808 1.0661 -0.6682 0.2167 -0.1139 -3.0135 -1.5300 -0.4644 -3.2140 -0.4622 -0.0660 0.6926 0.1000 0.0108 -20.3493 -11.2002 -9.4606 13.4790 4.7005 -1.3030 -12.7448 -4.6302 0.1921 -47.8536 11.1808 -9.9081 -1.3965 -1.2901 0.3225 -0.0843 -0.0775 0.0203 66.2507 -28.4686 73.6061 19.7787 16.3885 4.3609 -47.4657 -22.7538 -25.5673
 10.1494 50.1346 -1.7155 18.8388 52.7629 62.3744 25.4295 -14.6838 -12.1444 26.6717 -1.5350 1.1913 4.6694 -1.4712 0.8631 -0.4825 0.1563 -0.0825 -2.5858 -1.9273 -0.5042 -4.6676 -0.6698 -0.1043 2.0086 0.2905 0.0281 -19.9651 -11.7565 -9.7929 13.4608 4.6945 -1.3005 -13.1337 -4.7713 0.1817 -47.3505 11.1061 -10.4880 -1.6225 -1.5002 0.3718 -0.5526 -0.5088 0.1312 65.9886 -28.2825 72.8488 19.9483 16.5335 4.3737 -47.6187 -22.7831 -25.6667
 10.3032 49.9817 -1.6959 20.8994 53.1324 61.4898 25.4488 -15.2432 -12.3858 27.2705 -1.7725 1.4182 4.4045 -1.3899 0.8111 -0.7254 0.2353 -0.1236 -2.0288 -2.2544 -0.5130 -5.0567 -0.7252 -0.1155 1.5624 0.2259 0.0227 -19.6448 -12.2505 -10.0848 13.3448 4.6557 -1.2847 -13.4741 -4.8946 0.1719 -46.8902 11.0530 -11.2591 -1.5396 -1.4230 0.3538 0.0785 0.0721 -0.0190 65.9904 -28.2052 72.2111 20.4103 16.9287 4.4063 -47.3594 -22.7332 -25.4982
 10.4565 49.8356 -1.6881 22.7851 53.8816 60.7866 25.0622 -15.8541 -12.3958 27.3229 -1.8090 1.4542 3.9234 -1.2414 0.7175 -0.9258 0.3006 -0.1572 -1.9755 -2.6097 -0.5710 -5.2665 -0.7551 -0.1217 1.7109 0.2474 0.0245 -19.7503 -12.5258 -10.3430 13.1432 4.5884 -1.2574 -13.7037 -4.9777 0.1648 -46.9623 11.1351 -11.8875 -1.9280 -1.7847 0.4373 0.0205 0.0189 -0.0050 66.1041 -28.2451 72.2227 20.4136 16.9315 4.4065 -47.0761 -22.6778 -25.3143
 10.6127 49.6910 -1.6814 24.5426 54.6310 60.2440 24.6697 -16.1082 -12.5535 27.3344 -1.6813 1.3256 3.1708 -1.0076 0.5736 -0.9876 0.3208 -0.1675 -2.1121 -2.8167 -0.6220 -5.1739 -0.7419 -0.1189 1.2780 0.1847 0.0190 -19.8301 -12.7089 -10.5187 12.8861 4.5023 -1.2230 -13.8165 -5.0185 0.1612 -46.8568 11.1636 -12.4802 -1.8944 -1.7534 0.4302 -0.1718 -0.1580 0.0413 66.2644 -28.3796 72.2657 20.5673 17.0628 4.4166 -47.5210 -22.7644 -25.6032
 10.7600 49.5481 -1.6790 25.5963 55.2965 60.0529 24.7494 -16.4108 -12.5121 27.3048 -2.1177 1.7652 3.9294 -1.2433 0.7187 -1.8448 0.6018 -0.3085 -2.1490 -3.1918 -0.6935 -5.1349 -0.7363 -0.1178 1.2910 0.1866 0.0192 -19.7773 -12.7655 -10.5455 12.6248 4.4146 -1.1883 -13.9484 -5.0663 0.1569 -46.7907 11.1443 -12.4889 -2.1237 -1.9673 0.4785 -0.2104 -0.1934 0.0505 66.3027 -28.6428 72.1217 20.9931 17.4265 4.4427 -47.3924 -22.7396 -25.5197
 10.9056 49.4095 -1.6858 26.9896 56.2348 59.7375 24.2754 -16.4735 -12.6992 27.1181 -2.1067 1.7543 3.5220 -1.1170 0.6404 -1.6740 0.5456 -0.2808 -2.2510 -3.3798 -0.7392 -4.7291 -0.6786 -0.1061 0.6152 0.0889 0.0097 -19.7894 -12.7745 -10.5570 12.3540 4.3236 -1.1528 -13.9398 -5.0632 0.1572 -46.5067 11.0770 -12.6915 -2.1210 -1.9648 0.4780 -0.2018 -0.1855 0.0484 66.3125 -29.0259 72.2749 21.1788 17.5850 4.4532 -47.4427 -22.7493 -25.5523
 11.0508 49.2718 -1.6864 27.9723 57.1325 59.5991 23.7994 -16.7161 -12.7917 27.2475 -2.1810 1.8290 3.5267 -1.1184 0.6413 -1.5916 0.5186 -0.2673 -2.2803 -3.3242 -0.7324 -5.3669 -0.7693 -0.1247 1.3617 0.1968 0.0201 -19.6864 -12.7848 -10.5285 12.0740 4.2293 -1.1166 -14.0020 -5.0857 0.1551 -46.7425 11.0910 -12.1003 -2.4554 -2.2773 0.5470 -0.2225 -0.2045 0.0534 66.4673 -28.7457 71.9849 20.9238 17.3673 4.4386 -47.4101 -22.7430 -25.5311
 11.1971 49.1399 -1.6847 29.0057 57.7944 59.3637 23.4375 -16.7320 -12.7846 27.2111 -2.2927 1.9412 3.6689 -1.1626 0.6685 -2.3964 0.7838 -0.3971 -2.3916 -3.6057 -0.7970 -5.2357 -0.7507 -0.1208 1.1376 0.1644 0.0171 -19.7526 -12.7590 -10.5314 11.7480 4.1192 -1.0750 -14.1453 -5.1375 0.1503 -46.5616 11.0915 -12.6652 -2.2494 -2.0847 0.5047 -0.3855 -0.3547 0.0920 66.5920 -28.8499 72.0357 20.9206 17.3646 4.4385 -47.1757 -22.6974 -25.3789
 11.3345 49.0091 -1.6803 29.8905 58.1416 59.4135 23.2764 -17.0438 -13.0640 27.4078 -2.5984 2.2523 3.1537 -1.0022 0.5703 -1.7829 0.5814 -0.2985 -2.2323 -4.1927 -0.8843 -4.9066 -0.7039 -0.1111 1.1506 0.1663 0.0173 -19.6507 -13.0068 -10.6936 11.7082 4.1057 -1.0699 -14.3208 -5.2009 0.1441 -46.2508 11.0544 -13.2867 -2.3992 -2.2247 0.5355 -0.3106 -0.2857 0.0743 66.5544 -28.9099 71.9450 21.1561 17.5656 4.4519 -47.1358 -22.6896 -25.3530
 11.4712 48.8848 -1.6732 31.1911 58.3784 58.9978 22.8907 -17.1870 -13.1153 27.3845 -2.9018 2.5601 3.4400 -1.0915 0.6247 -2.0817 0.6799 -0.3468 -2.2404 -4.5897 -0.9572 -5.1313 -0.7358 -0.1177 1.4154 0.2046 0.0208 -19.7039 -13.4880 -11.0980 11.6785 4.0956 -1.0662 -14.5442 -5.2817 0.1361 -45.9800 11.0481 -14.1307 -2.4741 -2.2948 0.5508 -0.3548 -0.3264 0.0847 66.5573 -28.9923 71.6481 21.3811 17.7575 4.4640 -47.1902 -22.7002 -25.3883
 11.6009 48.7705 -1.6615 32.4557 58.6076 58.4650 22.4816 -17.4196 -12.9865 27.5477 -2.9925 2.6570 2.8941 -0.9211 0.5214 -1.9013 0.6204 -0.3177 -2.1035 -4.7988 -0.9758 -5.8602 -0.8394 -0.1397 2.0294 0.2935 0.0283 -19.7114 -14.2058 -11.6729 11.9484 4.1869 -1.1005 -14.7758 -5.3653 0.1274 -45.2692 10.9549 -15.7379 -2.5482 -2.3642 0.5658 -0.6383 -0.5879 0.1511 66.5611 -29.1224 71.8736 21.5510 17.9024 4.4726 -47.7978 -22.8172 -25.7832
 11.7172 48.6583 -1.6470 33.7827 58.7888 58.0857 21.9285 -18.0949 -13.1415 27.9395 -3.0038 2.6798 2.1852 -0.6982 0.3895 -1.7101 0.5575 -0.2866 -1.7620 -5.0946 -0.9788 -5.5718 -0.7985 -0.1308 1.2372 0.1788 0.0185 -19.5076 -14.9164 -12.1522 12.0350 4.2161 -1.1116 -15.2249 -5.5273 0.1095 -44.5719 10.8679 -17.6061 -2.4512 -2.2733 0.5461 -0.6804 -0.6268 0.1608 66.3985 -28.7545 71.2630 21.6003 17.9444 4.4750 -48.0418 -22.8630 -25.9420
 11.8295 48.5514 -1.6341 35.2717 58.9461 57.4445 21.3002 -18.5708 -13.1570 28.2345 -3.3142 3.0134 2.3631 -0.7543 0.4224 -1.7744 0.5786 -0.2971 -1.5245 -5.2263 -0.9664 -5.7692 -0.8265 -0.1369 1.3213 0.1910 0.0196 -19.1279 -15.2512 -12.2558 11.5238 4.0433 -1.0467 -15.3254 -5.5636 0.1054 -43.8241 10.7707 -19.8394 -2.5512 -2.3670 0.5664 -0.9467 -0.8731 0.2219 65.9622 -28.0320 71.1920 20.8494 17.3038 4.4342 -47.9098 -22.8383 -25.8561
 11.9251 48.4509 -1.6195 36.3417 59.0117 57.2447 21.0399 -19.0303 -13.2309 28.3988 -3.5130 3.2296 2.6461 -0.8433 0.4749 -2.1784 0.7118 -0.3623 -1.3338 -5.3418 -0.9572 -6.0089 -0.8605 -0.1444 1.2520 0.1809 0.0187 -18.8031 -15.5009 -12.3117 11.3066 3.9696 -1.0196 -15.5492 -5.6442 0.0959 -43.2019 10.6441 -21.4573 -2.7687 -2.5708 0.6100 -0.7786 -0.7175 0.1835 65.8263 -27.9296 71.3072 20.7787 17.2435 4.4299 -47.9331 -22.8427 -25.8712
 12.0125 48.3558 -1.6023 37.3004 59.0913 57.1431 20.8673 -19.3766 -13.3784 28.5976 -3.4832 3.2068 2.1858 -0.6984 0.3896 -2.0128 0.6572 -0.3357 -1.1378 -5.2662 -0.9159 -6.4347 -0.9208 -0.1580 1.1631 0.1681 0.0175 -18.5504 -15.5219 -12.2219 10.9329 3.8426 -0.9736 -15.6609 -5.6845 0.0910 -42.9149 10.5645 -22.0628 -3.2222 -2.9965 0.6986 -1.0064 -0.9283 0.2354 65.7889 -27.7261 71.1656 20.8153 17.2747 4.4321 -47.8606 -22.8290 -25.8240
 12.0900 48.2629 -1.5867 38.0982 59.3917 57.0676 20.7619 -19.4245 -13.3545 28.6377 -3.3502 3.0669 2.0066 -0.6417 0.3567 -2.7319 0.8950 -0.4501 -1.2442 -5.3322 -0.9423 -6.9840 -0.9984 -0.1763 2.2360 0.3234 0.0306 -18.6028 -15.4272 -12.1719 10.0876 3.5542 -0.8726 -15.3357 -5.5673 0.1049 -42.6960 10.5199 -22.7130 -2.9230 -2.7155 0.6405 -1.1759 -1.0854 0.2735 65.7631 -28.0109 71.3980 20.9623 17.4002 4.4409 -47.9597 -22.8477 -25.8885
 12.1536 48.1721 -1.5718 38.9464 60.6207 56.6874 20.1678 -19.7469 -13.1352 28.7929 -3.8222 3.5786 2.1359 -0.6826 0.3804 -2.1434 0.7002 -0.3567 -1.0707 -5.7203 -0.9783 -7.2010 -1.0291 -0.1837 2.5715 0.3720 0.0341 -18.4271 -15.7931 -12.3747 10.6011 3.7296 -0.9335 -15.8333 -5.7465 0.0833 -42.6446 10.5099 -22.8739 -2.9924 -2.7806 0.6541 -1.4211 -1.3130 0.3279 65.5618 -27.6697 70.9633 20.6728 17.1529 4.4233 -47.0266 -22.6680 -25.2821
 12.2135 48.0848 -1.5516 39.3619 60.9868 56.9080 20.2139 -19.5297 -13.3858 28.8564 -4.0728 3.8518 2.6253 -0.8368 0.4711 -2.4961 0.8168 -0.4129 -0.9411 -5.8593 -0.9800 -7.3420 -1.0489 -0.1886 2.6479 0.3831 0.0348 -18.3542 -15.6928 -12.2685 10.1178 3.5645 -0.8762 -15.6614 -5.6846 0.0910 -42.5241 10.4262 -22.6542 -3.0790 -2.8619 0.6710 -1.5135 -1.3989 0.3481 65.7136 -27.9044 70.9935 21.0301 17.4581 4.4448 -47.1547 -22.6933 -25.3653
 12.2618 48.0002 -1.5309 39.7021 61.7663 57.0998 20.0122 -19.5937 -13.4584 29.0020 -3.2268 2.9479 -0.8316 0.2699 -0.1414 -0.2032 0.0657 -0.0349 -0.9126 -6.1298 -1.0177 -7.2077 -1.0300 -0.1839 2.3486 0.3397 0.0318 -18.4443 -15.6581 -12.2803 9.6710 3.4113 -0.8244 -15.5681 -5.6511 0.0950 -42.4063 10.4003 -23.0084 -2.9370 -2.7286 0.6433 -1.5684 -1.4499 0.3601 65.7196 -28.1270 70.7635 21.3669 17.7455 4.4633 -47.4618 -22.7530 -25.5647
 12.3034 47.9217 -1.5118 39.9504 62.1249 57.4186 20.1179 -19.5429 -13.6603 28.9795 -4.3480 4.1577 2.0554 -0.6572 0.3657 -2.2076 0.7214 -0.3670 -0.8835 -6.4574 -1.0639 -7.2332 -1.0336 -0.1848 2.5227 0.3650 0.0336 -18.3944 -15.8681 -12.4172 9.5748 3.3783 -0.8134 -15.5796 -5.6552 0.0945 -42.2962 10.3532 -23.1129 -3.0216 -2.8080 0.6598 -1.6725 -1.5467 0.3827 65.6360 -28.2949 70.6535 21.7659 18.0855 4.4828 -47.4948 -22.7594 -25.5862
 12.3346 47.8449 -1.4894 40.0026 62.5529 57.9443 20.0940 -19.7016 -13.8772 29.0177 -4.3882 4.2041 1.6466 -0.5276 0.2911 -2.6556 0.8697 -0.4381 -0.8557 -6.7539 -1.1051 -7.2949 -1.0423 -0.1869 2.5066 0.3627 0.0334 -18.4856 -16.0468 -12.5906 9.2819 3.2776 -0.7803 -15.5701 -5.6518 0.0949 -42.2354 10.3384 -23.2876 -3.0317 -2.8175 0.6618 -1.7793 -1.6462 0.4056 65.5291 -28.4939 70.6035 21.9993 18.2841 4.4931 -48.1025 -22.8743 -25.9815
 12.3631 47.7759 -1.4666 40.3662 62.9030 58.0246 19.9564 -19.7341 -13.8785 29.0381 -4.6719 4.5139 1.9716 -0.6307 0.3503 -2.5283 0.8275 -0.4180 -0.8560 -7.1489 -1.1662 -6.7015 -0.9585 -0.1668 1.7698 0.2559 0.0252 -18.5875 -16.3636 -12.8733 9.2471 3.2656 -0.7764 -15.6698 -5.6877 0.0906 -41.9454 10.2452 -23.9208 -3.0302 -2.8161 0.6615 -1.9073 -1.7654 0.4329 65.3864 -28.4684 70.4768 21.9130 18.2107 4.4894 -47.6212 -22.7836 -25.6683
 12.3809 47.7101 -1.4421 40.7444 63.1543 58.1397 19.7535 -19.9237 -14.0225 29.3056 -4.2423 4.0662 -0.2585 0.0837 -0.0444 -0.6944 0.2252 -0.1183 -0.7188 -7.3336 -1.1694 -7.5869 -1.0835 -0.1972 3.1256 0.4524 0.0392 -18.5103 -16.6385 -13.0456 9.2775 3.2760 -0.7798 -15.7247 -5.7074 0.0882 -41.7221 10.1465 -24.1561 -3.1515 -2.9300 0.6850 -2.0141 -1.8650 0.4555 65.3055 -28.5507 70.4355 22.1652 18.4253 4.4999 -47.4850 -22.7575 -25.5798
 12.3946 47.6512 -1.4174 41.0339 63.2801 58.3047 19.5967 -20.1555 -14.0409 29.3579 -5.0602 4.9690 1.9572 -0.6261 0.3477 -2.5658 0.8399 -0.4240 -0.6089 -7.4493 -1.1666 -7.5843 -1.0831 -0.1971 1.8012 0.2605 0.0256 -18.4481 -16.9167 -13.2256 9.5871 3.3825 -0.8148 -16.2317 -5.8899 0.0649 -41.3116 10.0158 -25.2030 -3.1534 -2.9318 0.6854 -1.7623 -1.6303 0.4020 65.1969 -28.2396 70.0277 22.1234 18.3898 4.4982 -47.6251 -22.7844 -25.6709
